<svg xmlns="http://www.w3.org/2000/svg" width="64" height="64" viewBox="0 0 64 64">
  <circle cx="32" cy="32" r="26" fill="#ffb347" stroke="#9c4f00" stroke-width="4"/>
  <circle cx="32" cy="32" r="18" fill="#ffd18a" opacity="0.85"/>
  <path d="M31 18c-6 0-10 3-10 8 0 10 18 6 18 13 0 2-2 4-7 4-4 0-8-1-11-3v6c3 2 6 2 9 3v4h5v-4c6-1 10-4 10-9 0-10-18-7-18-13 0-2 2-4 6-4 4 0 7 1 10 3v-6c-2-1-5-2-8-2v-4h-5v4Z" fill="#9c4f00"/>
  <circle cx="49" cy="15" r="9" fill="#e67e22" stroke="#7a3600" stroke-width="2"/>
  <rect x="47.4" y="10" width="3.2" height="7" rx="1.2" fill="#fff4dd"/>
  <circle cx="49" cy="20" r="1.5" fill="#fff4dd"/>
</svg>
