<svg xmlns="http://www.w3.org/2000/svg" width="64" height="64" viewBox="0 0 64 64">
  <defs>
    <linearGradient id="chip" x1="10" y1="8" x2="54" y2="56" gradientUnits="userSpaceOnUse">
      <stop stop-color="#64748B"/>
      <stop offset="0.55" stop-color="#475569"/>
      <stop offset="1" stop-color="#1E293B"/>
    </linearGradient>
  </defs>
  <rect x="13" y="13" width="38" height="38" rx="12" fill="url(#chip)" stroke="#CBD5E1" stroke-width="3"/>
  <g stroke="#CBD5E1" stroke-width="3" stroke-linecap="round">
    <path d="M20 7v7M32 7v7M44 7v7M20 50v7M32 50v7M44 50v7M7 20h7M7 32h7M7 44h7M50 20h7M50 32h7M50 44h7"/>
  </g>
  <g fill="none" stroke="#F8FAFC" stroke-width="3" stroke-linecap="round" stroke-linejoin="round">
    <path d="M23 38V26l9-5 9 5v12l-9 5-9-5Z"/>
    <path d="M23 26l9 5 9-5M32 31v12"/>
  </g>
  <circle cx="24" cy="25" r="3" fill="#F8FAFC"/>
  <circle cx="40" cy="25" r="3" fill="#F8FAFC"/>
  <circle cx="32" cy="43" r="3" fill="#F8FAFC"/>
  <circle cx="50" cy="14" r="9" fill="#DC2626" stroke="#7F1D1D" stroke-width="2"/>
  <path d="M46.6 10.6l6.8 6.8m0-6.8l-6.8 6.8" stroke="#FEF2F2" stroke-width="2.5" stroke-linecap="round"/>
</svg>
