<svg xmlns="http://www.w3.org/2000/svg" width="64" height="64" viewBox="0 0 64 64">
  <circle cx="32" cy="32" r="26" fill="#d9d9d9" stroke="#5a5a5a" stroke-width="4"/>
  <circle cx="32" cy="32" r="18" fill="#f1f1f1" opacity="0.95"/>
  <path d="M31 18c-6 0-10 3-10 8 0 10 18 6 18 13 0 2-2 4-7 4-4 0-8-1-11-3v6c3 2 6 2 9 3v4h5v-4c6-1 10-4 10-9 0-10-18-7-18-13 0-2 2-4 6-4 4 0 7 1 10 3v-6c-2-1-5-2-8-2v-4h-5v4Z" fill="#5a5a5a"/>
  <circle cx="49" cy="15" r="9" fill="#d64541" stroke="#6e1613" stroke-width="2"/>
  <path d="M45.5 11.5l7 7m0-7l-7 7" stroke="#fff" stroke-width="2.6" stroke-linecap="round"/>
</svg>
